<?xml version="1.0" encoding="iso-8859-1"?>
<!-- Generator: Adobe Illustrator 16.0.0, SVG Export Plug-In . SVG Version: 6.00 Build 0)  -->
<!DOCTYPE svg PUBLIC "-//W3C//DTD SVG 1.1//EN" "http://www.w3.org/Graphics/SVG/1.1/DTD/svg11.dtd">
<svg version="1.1" id="Calque_1" xmlns="http://www.w3.org/2000/svg" xmlns:xlink="http://www.w3.org/1999/xlink" x="0px" y="0px"
	 width="28.35px" height="28.35px" viewBox="0 0 28.35 28.35" style="enable-background:new 0 0 28.35 28.35;" xml:space="preserve"
	>
<g>
	<polygon points="10.136,18.516 17.073,12.966 20.519,12.966 18.916,18.516 	"/>
	<path d="M19.186,13.968l-1.023,3.545h-5.169l4.432-3.545H19.186 M21.851,11.964h-5.129l-9.443,7.553H19.67L21.851,11.964
		L21.851,11.964z"/>
</g>
<g>
	<path d="M10.008,4.161l4.805,3.33v4.462l-4.805,3.844V4.161 M8.808,1.869v16.425l7.206-5.764V6.862L8.808,1.869L8.808,1.869z"/>
</g>
<rect x="8.438" y="18.892" width="1.5" height="6.947"/>
<rect x="17.375" y="18.892" width="1.5" height="6.947"/>
<polygon points="16.507,10.557 7.279,15.45 7.279,18.892 16.507,11.841 "/>
<polygon points="16.507,8.762 7.279,6.024 7.279,2.583 16.507,7.628 "/>
<polygon points="16.507,10.272 7.279,12.411 7.279,8.971 16.507,9.134 "/>
<rect x="7.279" y="19.518" width="12.348" height="0.733"/>
<rect x="6.839" y="15.455" width="0.44" height="3.437"/>
<rect x="6.839" y="8.971" width="0.44" height="3.439"/>
<rect x="8.437" y="1.869" width="0.371" height="16.783"/>
<rect x="6.839" y="2.583" width="0.44" height="3.44"/>
<polygon points="19.627,20.251 21.851,11.964 19.627,19.518 "/>
<polygon points="6.839,15.455 16.507,10.557 7.279,15.455 "/>
<polygon points="6.839,6.024 16.507,8.762 7.279,6.024 "/>
</svg>
